# xmcd CD database file
#
# Track frame offsets:
#	150
#	15357
#	36450
#	59965
#	80707
#	102504
#	119862
#	140047
#	157845
#	181822
#	202737
#	220702
#
# Disc length: 3206 seconds
#
# Revision: 0
# Processed by: cddbd v1.4PL0 Copyright (c) Steve Scherf et al.
# Submitted via: CDex 1.50
#
DISCID=ae0c840c
DTITLE=Diane Hubka - Look No Further
DYEAR=1999
DGENRE=Jazz
TTITLE0=Look No Further
TTITLE1=Morning
TTITLE2=Baltimore Oriole
TTITLE3=Dolphin Dance
TTITLE4=In Walked John
TTITLE5=Photograph
TTITLE6=Never Never Land
TTITLE7=Small Day Tomorrow
TTITLE8=Baby, You Should Know It
TTITLE9=In April
TTITLE10=August Moon
TTITLE11=Better Than Anything
EXTD=YEAR: 1999
EXTT0=
EXTT1=
EXTT2=
EXTT3=
EXTT4=
EXTT5=
EXTT6=
EXTT7=
EXTT8=
EXTT9=
EXTT10=
EXTT11=
PLAYORDER=
